<svg width="35" height="44" viewBox="0 0 35 44" fill="none" xmlns="http://www.w3.org/2000/svg">
<g clip-path="url(#clip0_372_129)">
<path d="M30.3049 0.440002H4.26834C2.14676 0.440002 0.42688 2.21295 0.42688 4.4V39.6C0.42688 41.787 2.14676 43.56 4.26834 43.56H30.3049C32.4265 43.56 34.1464 41.787 34.1464 39.6V4.4C34.1464 2.21295 32.4265 0.440002 30.3049 0.440002Z" fill="white"/>
<path d="M30.3049 0.440002H4.26834C2.14676 0.440002 0.42688 2.21295 0.42688 4.4V39.6C0.42688 41.787 2.14676 43.56 4.26834 43.56H30.3049C32.4265 43.56 34.1464 41.787 34.1464 39.6V4.4C34.1464 2.21295 32.4265 0.440002 30.3049 0.440002Z" stroke="#383733"/>
<path d="M4.26831 11L11.5244 4.40002H30.3049V39.6H4.26831V11Z" fill="white"/>
<path d="M4.26831 11L11.5244 4.40002M4.26831 11V39.6H30.3049V4.40002H11.5244M4.26831 11H11.5244V4.40002" stroke="#383733"/>
<path d="M22.404 10.12H21.7274C21.6874 9.91938 21.6174 9.74312 21.5173 9.59123C21.4191 9.43943 21.2991 9.31192 21.1572 9.20878C21.0171 9.1038 20.8616 9.02504 20.6907 8.9725C20.5197 8.92005 20.3414 8.89374 20.1559 8.89374C19.8175 8.89374 19.5111 8.98191 19.2365 9.15818C18.9636 9.33435 18.7463 9.59404 18.5843 9.93724C18.4243 10.2804 18.3443 10.7013 18.3443 11.2C18.3443 11.6987 18.4243 12.1197 18.5843 12.4628C18.7463 12.806 18.9636 13.0656 19.2365 13.2419C19.5111 13.4182 19.8175 13.5063 20.1559 13.5063C20.3414 13.5063 20.5197 13.48 20.6907 13.4275C20.8616 13.3751 21.0171 13.2972 21.1572 13.1941C21.2991 13.0891 21.4191 12.9607 21.5173 12.8088C21.6174 12.655 21.6874 12.4788 21.7274 12.28H22.404C22.3531 12.5744 22.2603 12.8378 22.1257 13.0703C21.9911 13.3028 21.8238 13.5006 21.6237 13.6638C21.4236 13.825 21.199 13.9478 20.9498 14.0322C20.7024 14.1165 20.4378 14.1588 20.1559 14.1588C19.6793 14.1588 19.2556 14.0387 18.8845 13.7988C18.5134 13.5588 18.2215 13.2175 18.0087 12.775C17.7959 12.3325 17.6895 11.8075 17.6895 11.2C17.6895 10.5925 17.7959 10.0675 18.0087 9.62502C18.2215 9.18256 18.5134 8.84129 18.8845 8.60127C19.2556 8.36127 19.6793 8.24127 20.1559 8.24127C20.4378 8.24127 20.7024 8.28346 20.9498 8.36783C21.199 8.45221 21.4236 8.57595 21.6237 8.73908C21.8238 8.90034 21.9911 9.0972 22.1257 9.32969C22.2603 9.56034 22.3531 9.82381 22.404 10.12Z" fill="#383733"/>
<path d="M23.7266 8.32001L25.3855 13.1688H25.4509L27.1098 8.32001H27.8192L25.7675 14.08H25.069L23.0173 8.32001H23.7266Z" fill="#383733"/>
<path d="M6.82922 20.24H27.7439M6.82922 22.88H27.7439M6.82922 25.96H18.3536M6.82922 29.04H18.7804M6.82922 32.12H27.7439M19.2073 35.2H27.7439M6.82922 17.6H27.7439M6.82922 34.76H15.3658" stroke="#383733"/>
</g>
<defs>
<clipPath id="clip0_372_129">
<rect width="35" height="44" fill="white"/>
</clipPath>
</defs>
</svg>
