<svg width="35" height="33" viewBox="0 0 35 33" fill="none" xmlns="http://www.w3.org/2000/svg">
<g clip-path="url(#clip0_369_127)">
<path d="M30.8152 0.423035H4.18478C2.2938 0.423035 0.760864 2.1278 0.760864 4.23073V28.7692C0.760864 30.8721 2.2938 32.5769 4.18478 32.5769H30.8152C32.7062 32.5769 34.2391 30.8721 34.2391 28.7692V4.23073C34.2391 2.1278 32.7062 0.423035 30.8152 0.423035Z" stroke="#383733"/>
<path d="M4.18481 6.76917H30.8152V13.1153V26.2307H4.18481V13.1153V6.76917Z" fill="white"/>
<path d="M4.18481 13.1153V26.2307H30.8152V13.1153M4.18481 13.1153V6.76917H30.8152V13.1153M4.18481 13.1153C4.18481 13.1153 16.6781 18.1922 17.6645 18.1922C18.6507 18.1923 30.8152 13.1153 30.8152 13.1153" stroke="#383733"/>
</g>
<defs>
<clipPath id="clip0_369_127">
<rect width="35" height="33" fill="white"/>
</clipPath>
</defs>
</svg>
